<?xml version="1.0" encoding="UTF-8"?>
<!DOCTYPE svg PUBLIC "-//W3C//DTD SVG 1.1//EN" "http://www.w3.org/Graphics/SVG/1.1/DTD/svg11.dtd">
<!-- Creator: CorelDRAW 2020 (64-Bit) -->
<svg xmlns="http://www.w3.org/2000/svg" xml:space="preserve" width="257mm" height="54mm" version="1.1" style="shape-rendering:geometricPrecision; text-rendering:geometricPrecision; image-rendering:optimizeQuality; fill-rule:evenodd; clip-rule:evenodd"
viewBox="0 0 25700 5400"
 xmlns:xlink="http://www.w3.org/1999/xlink"
 xmlns:xodm="http://www.corel.com/coreldraw/odm/2003">
 <defs>
  <style type="text/css">
   <![CDATA[
    .str0 {stroke:#2B2A29;stroke-width:141.11;stroke-miterlimit:22.9256}
    .str3 {stroke:#2B2A29;stroke-width:20;stroke-miterlimit:22.9256}
    .str1 {stroke:#E31E24;stroke-width:20;stroke-miterlimit:22.9256}
    .str2 {stroke:#AA2421;stroke-width:20;stroke-miterlimit:22.9256}
    .fil1 {fill:none;fill-rule:nonzero}
    .fil0 {fill:#FEFEFE}
    .fil3 {fill:#FFED00}
    .fil4 {fill:#2B2A29;fill-rule:nonzero}
    .fil2 {fill:#AA2421;fill-rule:nonzero}
    .fil5 {fill:black;fill-rule:nonzero}
   ]]>
  </style>
 </defs>
 <g id="Слой_x0020_1">
  <metadata id="CorelCorpID_0Corel-Layer"/>
  <path class="fil0 str0" d="M398.05 77.85l24874.84 0c220.25,0 400.45,180.19 400.45,400.45l0 4522.12c0,220.26 -180.2,400.45 -400.45,400.45l-24874.84 0c-220.26,0 -400.45,-180.19 -400.45,-400.45l0 -4522.12c0,-220.26 180.19,-400.45 400.45,-400.45z"/>
  <path class="fil1 str1" d="M481.35 4322c250.95,40.2 466.78,60.29 644.86,60.29 345.36,0 607.06,-40.19 779.74,-121.43 172.68,-81.23 259.02,-272.16 259.02,-573.65l0 -2535.8 7236.33 0 0 3597.69 -1537.92 0 0 -3175.61 -4160.48 0 0 1853.27c0,376.86 -56.65,652.38 -169.98,827.41 -113.32,175.86 -353.46,311.53 -717.7,409.51 -364.24,97.14 -828.32,145.72 -1386.83,145.72"/>
  <path class="fil2 str2" d="M2164.96 1151.41l7236.34 0 0 3597.69 -722.09 0 -815.83 0 0 -3175.62 -4160.48 0 0 1853.28c0,376.86 -56.65,652.38 -169.96,827.4 -113.35,175.87 -353.49,311.54 -717.73,409.51 -364.23,97.15 -828.31,145.73 -1386.82,145.73 -339.94,0 -529.84,-2.96 -1004.7,-46.52l57.66 -440.88c250.94,40.19 466.8,60.28 644.85,60.28 345.38,0 607.06,-40.18 779.75,-121.42 172.68,-81.23 259.01,-272.16 259.01,-573.66l0 -2535.79z"/>
  <polygon class="fil2 str2" points="3946.03,1971.51 7587.93,1971.51 7587.93,4738.56 6972.31,4738.56 6972.31,2296.13 4561.66,2296.13 4561.66,4738.56 3946.03,4738.56 "/>
  <polygon class="fil2 str2" points="4797.53,2850.8 5289.77,2850.8 5788.71,4361.51 6340.97,2850.8 6798.07,2850.8 6798.07,4738.57 6477.97,4738.57 6477.97,3218.76 5922.06,4738.57 5635.94,4738.57 5110.32,3146.03 5110.32,4738.57 4797.53,4738.57 "/>
  <polygon class="fil3 str3" points="12660.05,4203.88 12924.64,4223.72 12968.74,4047.33 13098.83,3886.37 13167.18,3723.21 13195.84,3568.87 13156.15,3452.01 13083.39,3355 12975.35,3273.42 12809.99,3227.11 12675.49,3264.6 12547.6,3317.51 12437.36,3476.27 12404.29,3593.12 12415.31,3736.44 12468.23,3866.53 12580.68,3981.19 12629.18,4062.77 "/>
  <path class="fil4" d="M10097.93 2188.51l330.58 0 0 1092.73c150.23,0 256.35,-29.59 317.26,-88.16 61.49,-58.57 139.21,-198.93 234.32,-421.66 69.01,-164.12 125.86,-279.54 171.11,-346.82 44.63,-67.86 108.42,-124.7 191.37,-170.53 82.37,-45.83 174.02,-69.01 273.78,-69.01 127,0 193.71,1.15 200.65,3.45l0 285.37c-11.59,0 -33.62,-0.57 -66.09,-1.72 -36.54,-1.16 -58.61,-1.77 -66.71,-1.77 -104.97,0 -183.27,25.52 -234.32,76.57 -52.19,51.05 -111.38,160.09 -178.62,326.55 -83.52,211.1 -154.3,344.52 -212.29,399.59 -57.42,54.54 -127.01,98.61 -207.07,131.69 160.66,44.06 319.56,193.14 476.16,446l513.32 829.39 -409.5 0 -418.17 -675.1c-114.26,-187.34 -209.94,-316.11 -286.52,-385.7 -77.1,-70.2 -176.28,-104.97 -298.68,-104.97l0 1165.77 -330.58 0 0 -2491.67zm3927.71 685.58l470.94 0 477.36 1445.34 528.36 -1445.34 437.32 0 0 1806.09 -306.25 0 0 -1454.06 -531.85 1454.06 -273.74 0 -502.88 -1523.64 0 1523.64 -299.26 0 0 -1806.09zm2382.04 0l1426.77 0 0 1806.09 -306.21 0 0 -1552.04 -814.31 0 0 1552.04 -306.25 0 0 -1806.09zm2034.04 0l1423.31 0 0 1804.36 -306.25 0 0 -1550.31 -810.85 0 0 898.4c0,209.37 -6.95,347.39 -20.26,414.67 -13.94,66.71 -51.05,124.7 -111.97,174.6 -61.48,49.86 -149.65,74.81 -265.06,74.81 -71.31,0 -153.68,-4.65 -246.49,-13.36l0 -254.59 134 0c63.21,0 108.42,-6.41 135.71,-19.72 27.25,-12.79 45.21,-33.67 54.5,-62.07 8.72,-28.4 13.36,-120.63 13.36,-276.65l0 -1190.14zm3112.79 1221.46l316.69 41.76c-49.32,183.84 -141.51,327.12 -276.08,428.6 -134.57,101.52 -306.25,152.53 -515.62,152.53 -263.3,0 -472.09,-81.17 -626.39,-243.57 -154.29,-161.81 -231.4,-389.76 -231.4,-682.65 0,-302.76 77.72,-538.23 233.7,-705.27 156.02,-167.65 358.45,-251.17 607.28,-251.17 240.69,0 437.32,81.79 589.85,245.95 152.53,164.12 229.1,394.95 229.1,692.48 0,18.01 -0.58,45.26 -1.73,81.22l-1345.01 0c11.59,197.78 67.29,349.73 168.19,454.71 100.33,104.97 226.18,157.75 376.41,157.75 111.96,0 207.65,-29.56 286.52,-88.74 79.45,-59.15 142.09,-153.68 188.49,-283.6zm-1002.22 -490.67l1005.72 0c-13.36,-151.96 -52.2,-265.64 -115.42,-341.64 -96.87,-117.72 -223.3,-176.86 -378.17,-176.86 -140.37,0 -258.08,46.98 -353.81,140.94 -95.11,93.95 -147.88,219.81 -158.32,377.56zm1702.26 -730.79l306.25 0 0 779.49c97.45,0 165.89,-18.54 205.31,-56.27 38.88,-37.11 96.3,-145.54 172.87,-325.93 60.29,-142.67 109,-236.63 146.16,-281.88 37.69,-45.25 80.6,-76 129.3,-91.65 49.32,-15.66 127.62,-23.76 234.9,-23.76l61.49 0 0 252.28 -85.25 -1.73c-80.64,0 -132.26,12.17 -154.87,35.97 -23.76,24.95 -60.3,99.18 -109.04,222.69 -46.41,118.33 -88.74,200.12 -127.58,245.33 -38.31,45.25 -98.03,86.44 -178.63,124.13 131.65,35.39 261.57,157.75 389.15,367.73l335.8 559.69 -336.38 0 -331.15 -557.96c-66.71,-113.11 -124.7,-187.34 -174.03,-223.3 -49.85,-35.97 -109.04,-53.93 -178.05,-53.93l0 835.19 -306.25 0 0 -1806.09zm2744.52 1144.88l299.26 41.76c-33.04,205.92 -116.56,366.59 -251.7,483.15 -135.14,116.57 -301.61,174.56 -498.19,174.56 -246.49,0 -444.89,-80.6 -594.5,-241.84 -150.22,-161.24 -225.03,-392.07 -225.03,-692.52 0,-194.86 32.47,-364.82 96.84,-510.98 64.4,-145.58 162.39,-255.2 294.65,-327.66 131.65,-73.12 274.89,-109.66 430.34,-109.66 195.48,0 356.1,49.32 480.23,148.5 124.7,99.18 204.73,240.12 239.54,422.24l-295.81 45.25c-28.4,-121.25 -78.3,-212.29 -150.76,-273.78 -71.93,-60.91 -158.94,-91.61 -261,-91.61 -154.29,0 -279.57,55.07 -376.45,165.27 -96.26,110.77 -144.39,284.79 -144.39,523.76 0,242.41 46.41,418.16 139.18,527.78 93.38,109.62 214.63,164.7 363.66,164.7 120.64,0 220.96,-36.54 301.03,-110.2 80.6,-73.08 131.65,-186.15 153.1,-338.72z"/>
  <path class="fil5" d="M13856.12 3696.88l-190.08 -62.84c-7.83,-40.45 -18.47,-80.29 -31.78,-118.96l133.47 -149.67 -13.04 -26.84c-22.56,-46.46 -48.73,-91.63 -77.7,-134.27l-16.74 -24.61 -195.42 40.68c-27.14,-31.2 -56.47,-60.48 -87.58,-87.63l40.63 -195.42 -24.61 -16.73c-42.9,-29.15 -88.07,-55.28 -134.36,-77.71l-26.79 -12.95 -149.58 133.47c-38.76,-13.31 -78.6,-23.94 -118.96,-31.78l-62.84 -190.07 -29.69 -2.19c-51.53,-3.73 -104.05,-3.73 -155.58,0l-29.69 2.14 -62.84 190.12c-40.32,7.84 -80.2,18.47 -118.96,31.78l-149.67 -133.47 -26.83 13.04c-46.47,22.57 -91.64,48.73 -134.28,77.71l-24.56 16.73 40.68 195.42c-31.2,27.15 -60.49,56.48 -87.63,87.58l-195.38 -40.67 -16.73 24.61c-29.15,42.9 -55.28,88.07 -77.71,134.36l-12.95 26.79 133.38 149.58c-13.31,38.76 -23.94,78.59 -31.77,118.96l-190.08 62.84 -2.18 29.69c-1.87,25.76 -3.12,51.58 -3.12,77.79 0,26.21 1.25,52.03 3.12,77.79l2.13 29.69 190.08 62.84c7.83,40.45 18.47,80.28 31.78,118.96l-133.47 149.67 13.04 26.83c22.56,46.47 48.73,91.64 77.7,134.27l16.74 24.62 195.42 -40.68c27.14,31.2 56.47,60.48 87.58,87.63l-40.63 195.42 24.61 16.73c42.9,29.15 88.07,55.28 134.36,77.71l26.79 12.95 149.62 -133.38c38.77,13.3 78.6,23.94 118.97,31.77l62.84 190.08 29.68 2.14c25.72,1.82 51.54,3.07 77.75,3.07 26.21,0 52.03,-1.25 77.79,-3.12l29.69 -2.13 62.84 -190.08c40.45,-7.83 80.29,-18.47 118.96,-31.78l149.67 133.47 26.83 -13.04c46.47,-22.56 91.64,-48.73 134.28,-77.7l24.61 -16.74 -40.68 -195.42c31.2,-27.14 60.48,-56.47 87.63,-87.58l195.42 40.63 16.73 -24.61c29.15,-42.9 55.28,-88.07 77.71,-134.36l12.95 -26.79 -133.47 -149.58c13.31,-38.76 23.94,-78.64 31.77,-118.96l190.08 -62.84 2.14 -29.69c1.91,-25.76 3.16,-51.58 3.16,-77.79 0,-26.21 -1.25,-52.03 -3.12,-77.79l-2.13 -29.69zm-84.83 149.22l-184.02 60.84 -4.37 26.66c-8.5,52.65 -22.38,104.5 -41.16,154.12l-9.53 25.19 128.98 144.73c-12.77,24.48 -26.75,48.55 -41.66,71.96l-189.01 -39.34 -17.09 20.92c-33.82,41.3 -71.96,79.44 -113.44,113.4l-20.92 17.09 39.39 189.01c-23.37,14.86 -47.4,28.79 -71.97,41.7l-144.72 -129.07 -25.24 9.62c-49.4,18.73 -101.25,32.53 -154.07,41.12l-26.66 4.36 -60.84 184.03c-27.64,1.38 -55.9,1.38 -83.53,0l-60.84 -184.03 -26.66 -4.36c-52.69,-8.5 -104.54,-22.39 -154.08,-41.17l-25.23 -9.57 -144.73 129.02c-24.48,-12.77 -48.55,-26.74 -71.96,-41.65l39.34 -189.01 -20.92 -17.09c-41.3,-33.83 -79.44,-71.97 -113.39,-113.45l-17.09 -20.91 -189.02 39.38c-14.86,-23.36 -28.79,-47.39 -41.7,-71.96l129.07 -144.73 -9.62 -25.23c-18.73,-49.4 -32.53,-101.25 -41.12,-154.08l-4.36 -26.66 -184.03 -60.84c-0.53,-13.79 -0.93,-27.72 -0.93,-41.74 0,-14.02 0.4,-27.95 1.07,-41.75l184.02 -60.83 4.37 -26.66c8.5,-52.7 22.38,-104.54 41.16,-154.08l9.57 -25.23 -129.02 -144.73c12.77,-24.48 26.75,-48.55 41.66,-71.96l189.01 39.34 17.09 -20.92c33.82,-41.3 71.96,-79.44 113.44,-113.4l20.92 -17.09 -39.39 -189.01c23.37,-14.86 47.4,-28.79 71.97,-41.7l144.72 129.02 25.19 -9.52c49.63,-18.78 101.47,-32.62 154.12,-41.17l26.66 -4.36 60.84 -184.03c27.64,-1.38 55.9,-1.38 83.53,0l60.84 184.03 26.66 4.36c52.69,8.5 104.54,22.39 154.08,41.17l25.23 9.57 144.73 -129.02c24.48,12.77 48.55,26.74 71.96,41.65l-39.34 189.01 20.92 17.09c41.3,33.83 79.44,71.97 113.39,113.45l17.09 20.91 189.02 -39.38c14.86,23.36 28.79,47.39 41.7,71.96l-129.07 144.73 9.62 25.23c18.73,49.4 32.53,101.25 41.12,154.08l4.36 26.66 184.03 60.83c0.53,13.8 0.93,27.73 0.93,41.75 0,14.02 -0.4,27.95 -1.07,41.74z"/>
  <path class="fil5" d="M12780.31 3181.47c-230.94,6.55 -424.66,199.74 -431.83,430.67 -4.27,134.45 51.72,262.14 153.45,350.21 72.01,62.31 113.31,149.58 113.31,242.55l0 44.51 0 178.01 133.52 0 0 89.01 89 0 0 -89.01 133.52 0 0 -181.04 0 -44.51c0,-89 42.14,-177.08 115.67,-241.57 96.21,-84.47 151.36,-206.14 151.36,-333.96 0,-121.32 -47.89,-234.63 -134.9,-319.19 -86.96,-84.51 -202.05,-127.86 -323.1,-125.68zm101.96 1156.94l-178.02 0 0 -89 178.02 0 0 89zm145.97 -445.04c-80.99,71.12 -131.86,165.82 -143.43,267.03l-47.05 0 0 -426.62 120.48 -120.48 -62.93 -62.93 -102.05 102.05 -102.05 -102.05 -62.93 62.93 120.48 120.48 0 426.62 -46.73 0c-10.91,-100.63 -61.24,-195.6 -141.88,-265.34 -81.4,-70.5 -126.13,-172.59 -122.75,-280.16 5.74,-184.69 160.66,-339.21 345.4,-344.42 97.38,-3.34 188.97,32.85 258.57,100.49 69.61,67.65 107.93,158.31 107.93,255.37 0,102.18 -44.11,199.52 -121.06,267.03z"/>
 </g>
</svg>
