<svg width="120" height="43" viewBox="0 0 120 43" fill="none" xmlns="http://www.w3.org/2000/svg">
<path fill-rule="evenodd" clip-rule="evenodd" d="M16.1749 13.0416L13.6481 8.85418C13.513 8.63211 13.3226 8.44861 13.0955 8.32146C12.8683 8.19431 12.6121 8.12782 12.3517 8.12843H10.4423H6.33691L14.6227 27.0069H17.8153L26.101 8.11963H22.0221H20.095C19.8375 8.1237 19.5853 8.1933 19.3622 8.32185C19.1392 8.4504 18.9528 8.63364 18.8207 8.85418L16.1749 13.0416ZM12.8632 13.7497L16.1749 19.2875L19.535 13.7497L16.1749 21.3548L12.8632 13.7497Z" fill="white"/>
<path fill-rule="evenodd" clip-rule="evenodd" d="M41.3978 11.6035C40.0157 11.6002 38.6751 12.0749 37.6045 12.9468C36.5339 13.8188 35.7994 15.034 35.5262 16.3854C35.2531 17.7369 35.458 19.141 36.1062 20.3587C36.7545 21.5763 37.8058 22.5321 39.0813 23.0633C40.3567 23.5945 41.7773 23.6682 43.1011 23.2719C44.4249 22.8756 45.57 22.0337 46.3414 20.8898C47.1128 19.7458 47.4627 18.3704 47.3316 16.998C47.2005 15.6256 46.5964 14.3409 45.6222 13.3629C45.0699 12.8053 44.4121 12.3626 43.6869 12.0606C42.9617 11.7585 42.1836 11.6032 41.3978 11.6035ZM41.3978 27.2446C39.1536 27.2429 36.9794 26.4651 35.2456 25.0437C33.5119 23.6223 32.3258 21.6454 31.8894 19.4496C31.453 17.2538 31.7933 14.9749 32.8523 13.0013C33.9114 11.0277 35.6237 9.48142 37.6975 8.62583C39.7713 7.77023 42.0784 7.65827 44.2256 8.30903C46.3729 8.95979 48.2276 10.333 49.4737 12.1948C50.7198 14.0565 51.2803 16.2916 51.0597 18.5193C50.839 20.747 49.8509 22.8295 48.2636 24.412C47.3632 25.3127 46.293 26.0268 45.1146 26.513C43.9362 26.9991 42.673 27.2478 41.3978 27.2446ZM99.9272 27.0071V23.2816H107.344C107.858 23.2816 108.35 23.0781 108.713 22.716C109.076 22.3539 109.28 21.8627 109.28 21.3506C109.278 20.8396 109.073 20.3503 108.71 19.9893C108.348 19.6284 107.857 19.4252 107.344 19.4241H105.056C104.298 19.4451 103.544 19.3145 102.837 19.0398C102.131 18.7651 101.487 18.352 100.944 17.8249C100.4 17.2977 99.9685 16.6673 99.6736 15.9708C99.3786 15.2743 99.2267 14.5258 99.2267 13.7697C99.2267 13.0136 99.3786 12.2652 99.6736 11.5687C99.9685 10.8722 100.4 10.2417 100.944 9.71461C101.487 9.18748 102.131 8.77436 102.837 8.49969C103.544 8.22501 104.298 8.09436 105.056 8.11544H111.926V11.841H105.056C104.794 11.8285 104.532 11.8692 104.287 11.9605C104.041 12.0518 103.817 12.1918 103.627 12.3722C103.438 12.5525 103.287 12.7693 103.184 13.0096C103.081 13.2498 103.027 13.5084 103.027 13.7697C103.027 14.0311 103.081 14.2897 103.184 14.5299C103.287 14.7702 103.438 14.987 103.627 15.1673C103.817 15.3477 104.041 15.4877 104.287 15.579C104.532 15.6703 104.794 15.711 105.056 15.6985H107.344C108.82 15.7396 110.222 16.3533 111.251 17.4092C112.281 18.4651 112.857 19.8799 112.857 21.3528C112.857 22.8257 112.281 24.2405 111.251 25.2964C110.222 26.3523 108.82 26.966 107.344 27.0071H99.9272ZM83.1705 27.0071V11.841H77.7554V8.11544H92.3514V11.841H86.9231V27.0071H83.1705ZM58.3794 27.0071V8.11544H62.1144V23.2816H72.0052V27.0071H58.3794ZM41.3802 11.6123C42.7623 11.609 44.1028 12.0837 45.1735 12.9556C46.2441 13.8276 46.9785 15.0428 47.2517 16.3942C47.5249 17.7457 47.3199 19.1498 46.6717 20.3674C46.0235 21.5851 44.9721 22.5409 43.6967 23.0721C42.4213 23.6033 41.0007 23.677 39.6768 23.2807C38.353 22.8844 37.2079 22.0425 36.4365 20.8985C35.6652 19.7546 35.3152 18.3792 35.4464 17.0068C35.5775 15.6344 36.1816 14.3497 37.1557 13.3717C37.708 12.8141 38.3659 12.3714 39.091 12.0694C39.8162 11.7673 40.5943 11.612 41.3802 11.6123ZM41.3802 27.2534C39.136 27.2517 36.9618 26.4739 35.228 25.0525C33.4942 23.6311 32.3081 21.6542 31.8717 19.4584C31.4353 17.2626 31.7756 14.9837 32.8347 13.0101C33.8938 11.0365 35.606 9.49022 37.6799 8.63462C39.7537 7.77903 42.0607 7.66707 44.208 8.31783C46.3553 8.96859 48.21 10.3418 49.4561 12.2035C50.7022 14.0653 51.2627 16.3004 51.042 18.5281C50.8214 20.7558 49.8333 22.8383 48.246 24.4208C47.347 25.3178 46.2793 26.0291 45.1041 26.5136C43.9289 26.9982 42.6694 27.2466 41.3978 27.2446L41.3802 27.2534Z" fill="white"/>
<path d="M30.2857 34.8538C30.3563 34.8142 30.4048 34.8274 30.4312 34.8758L30.6517 35.2805C30.6596 35.3036 30.6596 35.3287 30.6516 35.3518C30.6436 35.3749 30.6281 35.3947 30.6076 35.408C30.2814 35.6028 29.9074 35.7033 29.5272 35.6983C29.317 35.7053 29.1075 35.67 28.9113 35.5944C28.7151 35.5188 28.5361 35.4046 28.3851 35.2585C28.1133 34.9651 27.9624 34.5803 27.9624 34.1808C27.9624 33.7814 28.1133 33.3966 28.3851 33.1032C28.5241 32.9682 28.6893 32.8631 28.8705 32.7942C29.0518 32.7254 29.2453 32.6943 29.439 32.7029C29.6513 32.6892 29.8637 32.7277 30.0575 32.8151C30.2513 32.9026 30.4205 33.0363 30.5503 33.2044C30.7547 33.5476 30.8471 33.9457 30.8149 34.3436C30.8163 34.356 30.8148 34.3687 30.8107 34.3805C30.8065 34.3924 30.7997 34.4031 30.7908 34.412C30.7819 34.4209 30.7712 34.4276 30.7593 34.4318C30.7474 34.4359 30.7348 34.4373 30.7223 34.4359H28.8614C28.8827 34.5793 28.9473 34.7128 29.0466 34.8186C29.1215 34.8885 29.2096 34.9427 29.3057 34.9782C29.4019 35.0137 29.5042 35.0297 29.6066 35.0253C29.8443 35.0301 30.0789 34.9708 30.2857 34.8538ZM30.0123 33.9169C30.0086 33.78 29.9589 33.6484 29.8712 33.543C29.8141 33.4851 29.7452 33.4402 29.6691 33.4113C29.5929 33.3825 29.5115 33.3704 29.4302 33.3759C29.3493 33.3731 29.2686 33.3864 29.1928 33.4151C29.1171 33.4438 29.0479 33.4873 28.9893 33.543C28.9015 33.6499 28.8465 33.7797 28.8305 33.9169H30.0123Z" fill="white"/>
<path d="M33.9013 33.0679C34.0163 32.9528 34.1541 32.8628 34.306 32.8037C34.4578 32.7446 34.6204 32.7178 34.7832 32.7249C35.0892 32.7112 35.3894 32.8116 35.6254 33.0064C35.7387 33.1221 35.8267 33.2601 35.8836 33.4115C35.9405 33.563 35.9653 33.7246 35.9562 33.8861V35.5267C35.9568 35.539 35.9548 35.5513 35.9504 35.5628C35.946 35.5743 35.9392 35.5847 35.9305 35.5934C35.9217 35.6021 35.9113 35.6089 35.8997 35.6133C35.8882 35.6178 35.8759 35.6197 35.8636 35.6191H35.1933C35.1691 35.618 35.1462 35.6079 35.129 35.5908C35.1119 35.5737 35.1018 35.5509 35.1007 35.5267V34.1148C35.1183 33.9229 35.0667 33.7311 34.9552 33.5738C34.9064 33.5234 34.8472 33.4844 34.7817 33.4593C34.7162 33.4342 34.6459 33.4237 34.5759 33.4286C34.0865 33.4286 33.9057 33.8685 33.9057 34.3083V35.5575C33.9 35.5777 33.8878 35.5954 33.8711 35.6081C33.8544 35.6208 33.8341 35.6277 33.8131 35.6279H33.1693C33.1447 35.6279 33.1211 35.6182 33.1038 35.6008C33.0864 35.5835 33.0767 35.56 33.0767 35.5355V32.8744C33.0767 32.8499 33.0864 32.8264 33.1038 32.8091C33.1211 32.7918 33.1447 32.782 33.1693 32.782H33.7866C33.8112 32.782 33.8347 32.7918 33.8521 32.8091C33.8695 32.8264 33.8792 32.8499 33.8792 32.8744V33.0679H33.9013Z" fill="white"/>
<path d="M40.4676 34.854C40.5382 34.8144 40.5867 34.8276 40.6131 34.876L40.8336 35.2806C40.8415 35.3038 40.8415 35.3289 40.8335 35.352C40.8255 35.3751 40.81 35.3949 40.7895 35.4082C40.4633 35.603 40.0893 35.7035 39.7092 35.6985C39.4983 35.7056 39.2881 35.6703 39.0911 35.5947C38.8942 35.5192 38.7144 35.4049 38.5626 35.2587C38.2927 34.9643 38.1431 34.5799 38.1431 34.181C38.1431 33.7821 38.2927 33.3977 38.5626 33.1034C38.7027 32.9687 38.8687 32.8638 39.0506 32.795C39.2326 32.7262 39.4266 32.6949 39.621 32.7031C39.8329 32.6916 40.0446 32.7312 40.238 32.8185C40.4314 32.9057 40.6009 33.0382 40.7322 33.2045C40.9366 33.5478 41.029 33.9459 40.9968 34.3438C40.9975 34.3565 40.9954 34.3692 40.9907 34.381C40.986 34.3928 40.9788 34.4035 40.9696 34.4123C40.9604 34.421 40.9494 34.4277 40.9373 34.4318C40.9253 34.436 40.9124 34.4374 40.8998 34.4361H39.0212C39.0421 34.5806 39.1085 34.7146 39.2109 34.8188C39.2853 34.8893 39.3734 34.9439 39.4696 34.9795C39.5659 35.015 39.6684 35.0307 39.7709 35.0255C40.0145 35.0335 40.2557 34.9741 40.4676 34.854ZM40.1898 33.9171C40.1932 33.8433 40.1808 33.7695 40.1533 33.7009C40.1258 33.6322 40.084 33.5702 40.0306 33.519C39.9771 33.4677 39.9133 33.4285 39.8434 33.4039C39.7736 33.3792 39.6992 33.3697 39.6254 33.3761C39.462 33.3714 39.3034 33.4315 39.1844 33.5432C39.0962 33.6494 39.0424 33.7798 39.0301 33.9171H40.1898Z" fill="white"/>
<path d="M44.0703 34.2339V35.5534C44.065 35.5785 44.05 35.6004 44.0285 35.6145C44.007 35.6285 43.9808 35.6334 43.9557 35.6282H43.3339C43.3216 35.6288 43.3093 35.6269 43.2978 35.6225C43.2862 35.6181 43.2758 35.6113 43.267 35.6026C43.2583 35.5939 43.2515 35.5834 43.2471 35.5719C43.2427 35.5604 43.2407 35.5481 43.2413 35.5358V32.8747C43.2407 32.8624 43.2427 32.8501 43.2471 32.8387C43.2515 32.8272 43.2583 32.8167 43.267 32.808C43.2758 32.7993 43.2862 32.7925 43.2978 32.7881C43.3093 32.7837 43.3216 32.7817 43.3339 32.7824H43.9557C43.9803 32.7824 44.0038 32.7921 44.0212 32.8094C44.0385 32.8267 44.0483 32.8502 44.0483 32.8747V33.0463C44.1336 32.9427 44.2415 32.8599 44.3638 32.8042C44.4861 32.7486 44.6195 32.7215 44.7538 32.7252C45.0087 32.7168 45.258 32.8012 45.455 32.9627C45.4756 32.977 45.4901 32.9984 45.4958 33.0228C45.5015 33.0471 45.498 33.0728 45.4858 33.0947L45.2786 33.5873C45.2711 33.5989 45.2612 33.6089 45.2497 33.6165C45.2382 33.6242 45.2252 33.6294 45.2116 33.6319C45.1979 33.6344 45.1839 33.634 45.1704 33.6309C45.1569 33.6278 45.1442 33.6219 45.1331 33.6137C44.9837 33.5111 44.8073 33.4545 44.626 33.4509C44.1894 33.4509 44.0703 33.8424 44.0703 34.2339Z" fill="white"/>
<path d="M49.2733 36.2877C49.3876 36.1532 49.446 35.9801 49.4365 35.8039V35.5268C49.2222 35.6397 48.9819 35.6943 48.7397 35.6851C48.5649 35.6908 48.3908 35.6618 48.2273 35.5999C48.0638 35.538 47.9142 35.4444 47.7872 35.3245C47.6427 35.1761 47.5293 35.0005 47.4536 34.8079C47.3779 34.6153 47.3414 34.4096 47.3463 34.2028C47.3356 33.8057 47.4758 33.4192 47.7387 33.1208C47.8654 32.9918 48.0172 32.8902 48.1848 32.8221C48.3525 32.754 48.5323 32.7209 48.7133 32.7249C48.9681 32.7296 49.2155 32.8108 49.4232 32.9581V32.8745C49.4232 32.862 49.4257 32.8496 49.4307 32.8381C49.4356 32.8266 49.4428 32.8162 49.4519 32.8076C49.461 32.7989 49.4717 32.7922 49.4834 32.7878C49.4952 32.7835 49.5077 32.7815 49.5202 32.7821H50.1332C50.1457 32.7815 50.1582 32.7835 50.17 32.7878C50.1817 32.7922 50.1925 32.7989 50.2015 32.8076C50.2106 32.8162 50.2178 32.8266 50.2227 32.8381C50.2277 32.8496 50.2302 32.862 50.2302 32.8745V35.6983C50.2441 35.9055 50.2118 36.1132 50.1356 36.3064C50.0593 36.4996 49.941 36.6735 49.7892 36.8156C49.4856 37.0357 49.1143 37.1431 48.7397 37.1191C48.3431 37.1256 47.9529 37.0188 47.6153 36.8112C47.5953 36.7973 47.5803 36.7775 47.5723 36.7546C47.5644 36.7316 47.564 36.7068 47.5712 36.6836L47.8181 36.213C47.824 36.2003 47.8329 36.1891 47.844 36.1806C47.8551 36.172 47.868 36.1661 47.8819 36.1635C47.8957 36.161 47.9099 36.1617 47.9233 36.1657C47.9368 36.1697 47.9491 36.1769 47.9592 36.1866C48.1926 36.3476 48.4692 36.435 48.753 36.4373C48.8453 36.4488 48.9391 36.4414 49.0285 36.4157C49.1179 36.39 49.2012 36.3465 49.2733 36.2877ZM49.4365 34.8274V33.6486C49.2714 33.5174 49.0695 33.4405 48.8588 33.4287C48.7763 33.4263 48.6943 33.4415 48.6182 33.4734C48.5422 33.5053 48.4738 33.553 48.4178 33.6134C48.283 33.7847 48.2141 33.9985 48.2238 34.216C48.2078 34.4364 48.2755 34.6546 48.4134 34.8274C48.4696 34.8873 48.5381 34.9344 48.6142 34.9655C48.6903 34.9966 48.7722 35.011 48.8544 35.0078C49.062 35.0064 49.2646 34.9437 49.4365 34.8274Z" fill="white"/>
<path d="M54.5384 35.795C54.4256 36.1457 54.2253 36.462 53.9563 36.7143C53.7842 36.8639 53.5829 36.9762 53.365 37.0444C53.1472 37.1125 52.9176 37.1349 52.6907 37.1102C52.6708 37.1102 52.6518 37.1023 52.6377 37.0883C52.6237 37.0743 52.6158 37.0552 52.6158 37.0354V36.402C52.6151 36.392 52.6166 36.382 52.6201 36.3727C52.6237 36.3633 52.6292 36.3548 52.6363 36.3477C52.6434 36.3406 52.6519 36.3351 52.6613 36.3316C52.6707 36.3281 52.6807 36.3266 52.6907 36.3272C52.7392 36.3272 52.7877 36.3272 52.8847 36.3272C53.0544 36.3318 53.2207 36.2791 53.3566 36.1777C53.4729 36.0789 53.5701 35.9596 53.6432 35.8258L52.3203 32.9008C52.3203 32.8436 52.3203 32.7688 52.3997 32.7688H53.1714C53.2051 32.7634 53.2397 32.7708 53.2683 32.7895C53.2968 32.8082 53.3173 32.8369 53.3257 32.87L54.0621 34.7966L54.6795 32.87C54.6795 32.7952 54.7456 32.7688 54.8338 32.7688H55.5438C55.6408 32.7688 55.6408 32.8436 55.6187 32.9008L54.5384 35.795Z" fill="white"/>
<path d="M62.1233 34.8321C62.1233 34.6957 62.0131 34.6474 61.8543 34.577C61.6956 34.5066 61.4531 34.4274 61.2502 34.3307C61.1042 34.2688 60.9812 34.1632 60.8982 34.0284C60.8152 33.8936 60.7764 33.7363 60.7872 33.5785C60.7872 33.0551 61.1929 32.7252 61.9337 32.7252C62.2723 32.7116 62.6085 32.7874 62.9082 32.9451C62.9198 32.9497 62.9302 32.9567 62.9387 32.9657C62.9472 32.9747 62.9535 32.9855 62.9573 32.9973C62.9611 33.0091 62.9623 33.0216 62.9606 33.0339C62.959 33.0461 62.9547 33.0579 62.9479 33.0683L62.7186 33.5081C62.6966 33.5565 62.6569 33.5653 62.6084 33.5389C62.4115 33.4241 62.1882 33.362 61.9602 33.3586C61.7926 33.3586 61.6647 33.4158 61.6647 33.5565C61.6647 33.6973 61.797 33.7457 61.9425 33.8028C62.088 33.86 62.3262 33.9392 62.5246 34.0404C62.6682 34.0974 62.7906 34.1973 62.8751 34.3265C62.9596 34.4556 63.0019 34.6076 62.9964 34.7617C62.9964 35.2851 62.5555 35.6766 61.8102 35.6766C61.4494 35.6955 61.0904 35.6132 60.774 35.4391C60.7166 35.4083 60.7034 35.3643 60.7299 35.3247L60.9592 34.8409C60.9642 34.8297 60.9715 34.8198 60.9808 34.8118C60.99 34.8038 61.0009 34.7979 61.0127 34.7946C61.0244 34.7912 61.0368 34.7905 61.0489 34.7924C61.061 34.7943 61.0725 34.7989 61.0826 34.8057C61.2924 34.9483 61.5388 35.0277 61.7926 35.0344C61.9998 35.0564 62.1233 34.9816 62.1233 34.8321Z" fill="white"/>
<path d="M66.1844 34.5155C66.1784 34.6273 66.1996 34.739 66.2462 34.841C66.2745 34.8917 66.3172 34.933 66.369 34.9596C66.4208 34.9862 66.4793 34.997 66.5372 34.9905C66.6868 34.9864 66.8302 34.9304 66.9429 34.8322C67.0002 34.7882 67.0575 34.797 67.0752 34.8322L67.2956 35.272C67.3065 35.2936 67.3085 35.3187 67.301 35.3417C67.2936 35.3647 67.2774 35.3839 67.256 35.3952C66.9771 35.5769 66.6497 35.6705 66.3167 35.6635C66.1814 35.6756 66.045 35.6574 65.9176 35.6102C65.7902 35.563 65.675 35.488 65.5803 35.3908C65.4175 35.1583 65.3383 34.8777 65.3554 34.5946V33.429H65.0423C65.0166 33.429 64.9919 33.4188 64.9737 33.4007C64.9555 33.3825 64.9453 33.3579 64.9453 33.3323V32.8924C64.9453 32.8799 64.9478 32.8675 64.9528 32.856C64.9577 32.8445 64.9649 32.8341 64.974 32.8255C64.983 32.8168 64.9938 32.8101 65.0055 32.8058C65.0173 32.8014 65.0298 32.7994 65.0423 32.8H65.3554V32.2238C65.3548 32.2113 65.3568 32.1988 65.3611 32.1871C65.3655 32.1754 65.3723 32.1647 65.3809 32.1557C65.3896 32.1466 65.4 32.1394 65.4115 32.1345C65.4231 32.1296 65.4355 32.127 65.448 32.1271H66.0874C66.1003 32.1264 66.1132 32.1285 66.1253 32.1331C66.1373 32.1378 66.1483 32.1449 66.1574 32.154C66.1665 32.1631 66.1737 32.174 66.1783 32.1861C66.183 32.1981 66.1851 32.211 66.1844 32.2238V32.7824H66.9737C66.9863 32.7818 66.9988 32.7838 67.0105 32.7882C67.0223 32.7925 67.033 32.7993 67.0421 32.8079C67.0512 32.8165 67.0584 32.8269 67.0633 32.8384C67.0682 32.8499 67.0708 32.8623 67.0708 32.8748V33.3147C67.0714 33.3275 67.0693 33.3404 67.0647 33.3524C67.06 33.3645 67.0529 33.3754 67.0438 33.3845C67.0346 33.3936 67.0237 33.4007 67.0116 33.4054C66.9996 33.41 66.9867 33.4121 66.9737 33.4114H66.1844V34.5155Z" fill="white"/>
<path d="M70.7221 32.7251C71.0138 32.7372 71.2955 32.8344 71.5323 33.0047C71.769 33.1751 71.9504 33.411 72.054 33.6833C72.1575 33.9555 72.1786 34.2521 72.1147 34.5362C72.0507 34.8203 71.9046 35.0794 71.6943 35.2814C71.484 35.4834 71.2189 35.6193 70.9319 35.6724C70.6449 35.7254 70.3486 35.6932 70.0797 35.5798C69.8109 35.4663 69.5813 35.2767 69.4196 35.0342C69.2579 34.7918 69.171 34.5074 69.1699 34.2162C69.1646 34.0141 69.2016 33.813 69.2785 33.6259C69.3554 33.4388 69.4705 33.2697 69.6165 33.1294C69.7626 32.9891 69.9363 32.8807 70.1267 32.8111C70.317 32.7415 70.5198 32.7122 70.7221 32.7251ZM70.7221 35.008C70.8822 35.0204 71.0424 34.9843 71.1816 34.9045C71.3208 34.8247 71.4326 34.7048 71.5025 34.5606C71.5724 34.4164 71.597 34.2545 71.5732 34.0961C71.5494 33.9377 71.4782 33.7902 71.369 33.6727C71.2598 33.5553 71.1176 33.4735 70.961 33.4379C70.8044 33.4024 70.6408 33.4148 70.4914 33.4735C70.3419 33.5322 70.2138 33.6345 70.1236 33.767C70.0334 33.8995 69.9853 34.0561 69.9857 34.2162C69.9757 34.3178 69.9874 34.4204 70.0201 34.5171C70.0528 34.6139 70.1057 34.7026 70.1753 34.7774C70.2449 34.8523 70.3296 34.9115 70.4239 34.9513C70.5182 34.991 70.6198 35.0103 70.7221 35.008Z" fill="white"/>
<path d="M75.3785 34.2338V35.5534C75.3732 35.5784 75.3582 35.6004 75.3367 35.6144C75.3152 35.6284 75.289 35.6334 75.2639 35.6281H74.6245C74.6121 35.6288 74.5998 35.6268 74.5883 35.6224C74.5768 35.618 74.5663 35.6112 74.5576 35.6025C74.5488 35.5938 74.542 35.5833 74.5376 35.5719C74.5332 35.5604 74.5312 35.5481 74.5319 35.5358V32.8747C74.5312 32.8624 74.5332 32.8501 74.5376 32.8386C74.542 32.8271 74.5488 32.8167 74.5576 32.8079C74.5663 32.7992 74.5768 32.7925 74.5883 32.788C74.5998 32.7836 74.6121 32.7817 74.6245 32.7823H75.2639C75.2884 32.7823 75.312 32.792 75.3293 32.8094C75.3467 32.8267 75.3565 32.8502 75.3565 32.8747V33.0462C75.4418 32.9426 75.5497 32.8598 75.672 32.8042C75.7942 32.7485 75.9276 32.7215 76.062 32.7251C76.3181 32.7172 76.5686 32.8015 76.7675 32.9626C76.7867 32.978 76.8002 32.9994 76.8058 33.0233C76.8114 33.0472 76.8088 33.0723 76.7984 33.0946L76.5868 33.5872C76.5792 33.5988 76.5694 33.6088 76.5579 33.6165C76.5463 33.6241 76.5334 33.6294 76.5197 33.6318C76.5061 33.6343 76.4921 33.634 76.4786 33.6308C76.4651 33.6277 76.4524 33.6218 76.4412 33.6136C76.2918 33.511 76.1155 33.4544 75.9341 33.4509C75.4976 33.4509 75.3785 33.8423 75.3785 34.2338Z" fill="white"/>
<path d="M79.0918 33.5869C79.0301 33.6221 78.986 33.6221 78.9551 33.5562L78.792 33.1647C78.7843 33.1545 78.779 33.1426 78.7766 33.1301C78.7742 33.1175 78.7748 33.1046 78.7782 33.0923C78.7816 33.0799 78.7878 33.0686 78.7963 33.059C78.8048 33.0495 78.8154 33.042 78.8272 33.0371C79.1817 32.8306 79.5853 32.7227 79.9958 32.7248C80.1622 32.7138 80.3291 32.737 80.4861 32.793C80.6431 32.849 80.7869 32.9366 80.9086 33.0503C81.0877 33.2621 81.1778 33.5348 81.1599 33.8113V35.5443C81.1588 35.5692 81.1481 35.5927 81.13 35.6099C81.1119 35.6271 81.0879 35.6367 81.0629 35.6367H80.5117C80.499 35.6372 80.4862 35.6353 80.4743 35.631C80.4623 35.6267 80.4512 35.62 80.4418 35.6115C80.4324 35.6029 80.4248 35.5925 80.4194 35.581C80.4139 35.5695 80.4109 35.557 80.4103 35.5443V35.4959H80.3838C80.1561 35.6392 79.89 35.7098 79.621 35.6982C79.3785 35.7058 79.1416 35.6244 78.9551 35.4695C78.8613 35.3895 78.7868 35.2894 78.7372 35.1767C78.6876 35.064 78.6641 34.9416 78.6685 34.8185C78.6701 34.6589 78.7215 34.5036 78.8156 34.3744C78.9096 34.2451 79.0416 34.1483 79.1932 34.0972C79.5585 33.964 79.9423 33.8883 80.3309 33.8728V33.8113C80.3405 33.6958 80.3093 33.5807 80.2427 33.4858C80.1971 33.4413 80.1423 33.4073 80.0821 33.386C80.022 33.3648 79.9579 33.3568 79.8944 33.3626C79.612 33.3678 79.3357 33.445 79.0918 33.5869ZM80.3133 34.9725V34.4271C79.9341 34.4271 79.4314 34.4886 79.4314 34.7965C79.4314 34.9945 79.6254 35.0868 79.8723 35.0868C80.0268 35.0879 80.1789 35.0485 80.3133 34.9725Z" fill="white"/>
<path d="M85.2562 36.2876C85.3705 36.153 85.4289 35.9799 85.4193 35.8038V35.5267C85.2053 35.6401 84.9648 35.6948 84.7226 35.685C84.5486 35.6901 84.3752 35.6608 84.2125 35.599C84.0498 35.5371 83.901 35.4437 83.7745 35.3243C83.6294 35.1764 83.5156 35.0009 83.4398 34.8082C83.3641 34.6155 83.328 34.4096 83.3336 34.2027C83.3245 33.805 83.4662 33.4186 83.7304 33.1207C83.8559 32.9902 84.0076 32.8875 84.1755 32.8193C84.3434 32.7511 84.5238 32.7189 84.705 32.7248C84.9598 32.7294 85.2072 32.8107 85.4149 32.9579V32.8744C85.4149 32.8499 85.4247 32.8264 85.4421 32.809C85.4594 32.7917 85.483 32.782 85.5075 32.782H86.1249C86.1495 32.782 86.173 32.7917 86.1904 32.809C86.2077 32.8264 86.2175 32.8499 86.2175 32.8744V35.6982C86.2327 35.9055 86.201 36.1136 86.1247 36.307C86.0483 36.5003 85.9293 36.6741 85.7765 36.8154C85.4732 37.0363 85.1017 37.1437 84.727 37.1189C84.3305 37.125 83.9404 37.0182 83.6026 36.811C83.5826 36.7972 83.5676 36.7774 83.5596 36.7544C83.5517 36.7315 83.5513 36.7067 83.5585 36.6835L83.8054 36.2128C83.8124 36.2007 83.8221 36.1902 83.8336 36.1821C83.8451 36.1741 83.8582 36.1686 83.872 36.1661C83.8859 36.1635 83.9001 36.1641 83.9137 36.1676C83.9274 36.1711 83.94 36.1775 83.9509 36.1865C84.1827 36.3474 84.4578 36.4348 84.7403 36.4372C84.8319 36.4486 84.925 36.4412 85.0137 36.4155C85.1024 36.3897 85.1849 36.3462 85.2562 36.2876ZM85.4193 34.8273V33.6485C85.2547 33.5165 85.0526 33.4395 84.8417 33.4286C84.7592 33.4262 84.6772 33.4414 84.6011 33.4733C84.5251 33.5051 84.4567 33.5529 84.4007 33.6133C84.2659 33.7846 84.197 33.9984 84.2067 34.2159C84.1907 34.4362 84.2584 34.6545 84.3963 34.8273C84.4529 34.8867 84.5214 34.9335 84.5974 34.9646C84.6734 34.9956 84.7552 35.0103 84.8373 35.0076C85.0405 35.0045 85.2383 34.9418 85.4061 34.8273H85.4193Z" fill="white"/>
<path d="M90.8387 34.8537C90.9049 34.8142 90.9578 34.8274 90.9842 34.8757L91.2003 35.2804C91.21 35.3033 91.2108 35.329 91.2027 35.3526C91.1946 35.3761 91.178 35.3958 91.1562 35.408C90.8305 35.6038 90.4561 35.7044 90.0758 35.6983C89.8656 35.705 89.6562 35.6695 89.46 35.594C89.2638 35.5184 89.0849 35.4043 88.9337 35.2584C88.6638 34.9641 88.5142 34.5796 88.5142 34.1808C88.5142 33.7819 88.6638 33.3975 88.9337 33.1031C89.0731 32.9688 89.2384 32.864 89.4196 32.7952C89.6007 32.7264 89.794 32.695 89.9876 32.7029C90.2003 32.6907 90.4129 32.7299 90.6071 32.8172C90.8013 32.9045 90.9716 33.0373 91.1033 33.2043C91.3062 33.548 91.3971 33.9461 91.3635 34.3435C91.3649 34.356 91.3634 34.3686 91.3593 34.3805C91.3551 34.3923 91.3483 34.4031 91.3394 34.4119C91.3306 34.4208 91.3198 34.4276 91.3079 34.4317C91.296 34.4359 91.2834 34.4373 91.2709 34.4359H89.3747C89.3955 34.5803 89.4619 34.7144 89.5643 34.8186C89.6381 34.8887 89.7254 34.9432 89.8209 34.9787C89.9164 35.0142 90.0181 35.0301 90.1199 35.0253C90.371 35.0374 90.6203 34.9779 90.8387 34.8537ZM90.5609 33.9169C90.5643 33.843 90.5519 33.7693 90.5244 33.7006C90.4969 33.6319 90.4551 33.5699 90.4017 33.5187C90.3482 33.4675 90.2844 33.4282 90.2145 33.4036C90.1447 33.379 90.0703 33.3695 89.9965 33.3758C89.8331 33.3711 89.6745 33.4312 89.5555 33.543C89.4673 33.6492 89.4135 33.7795 89.4012 33.9169H90.5609Z" fill="white"/>
<path d="M41.4156 7.87793C39.4969 7.87793 37.6212 8.44546 36.0259 9.50876C34.4305 10.5721 33.1871 12.0834 32.4528 13.8516C31.7186 15.6198 31.5264 17.5654 31.9008 19.4425C32.2751 21.3196 33.199 23.0439 34.5558 24.3972C35.9125 25.7505 37.6411 26.6721 39.523 27.0455C41.4048 27.4189 43.3554 27.2273 45.1281 26.4949C46.9008 25.7624 48.4159 24.5221 49.4819 22.9308C50.5479 21.3395 51.1168 19.4686 51.1168 17.5547C51.1168 14.9883 50.0948 12.5269 48.2754 10.7122C46.4561 8.89744 43.9885 7.87793 41.4156 7.87793ZM41.4156 23.5983C40.2185 23.5957 39.0491 23.2391 38.0551 22.5738C37.0611 21.9084 36.2871 20.964 35.831 19.86C35.3749 18.756 35.2572 17.542 35.4927 16.3712C35.7281 15.2005 36.3062 14.1256 37.1539 13.2825C38.0016 12.4394 39.0809 11.8659 40.2552 11.6345C41.4296 11.403 42.6464 11.524 43.7519 11.9822C44.8573 12.4403 45.8018 13.215 46.466 14.2085C47.1301 15.2019 47.4842 16.3694 47.4833 17.5635C47.4827 18.3573 47.3252 19.1432 47.0199 19.8763C46.7145 20.6093 46.2673 21.2752 45.7037 21.8357C45.1402 22.3962 44.4714 22.8403 43.7356 23.1428C42.9998 23.4452 42.2114 23.6 41.4156 23.5983Z" fill="white"/>
</svg>
